<svg width="591" height="157" viewBox="0 0 591 157" fill="none" xmlns="http://www.w3.org/2000/svg">
<path d="M155.64 2.66261V0.084956H117.538V2.66261C131.745 14.5843 128.193 32.3057 116.246 61.9488L89.7677 127.679L51.3419 38.1054C43.9151 20.0618 41.009 11.3622 49.4045 2.66261V0.084956H0V2.66261C15.4995 15.5509 22.2805 29.4058 35.8425 60.9822L75.8828 155.067H101.392L91.0593 130.579L118.506 62.271C130.454 32.6279 141.755 16.8397 155.64 2.66261Z" fill="#85ABAE"/>
<path d="M283.407 50.9937H290.511C290.511 50.9937 310.532 50.9937 313.438 50.9937C308.917 12.0066 271.137 -1.20387 243.69 0.084956C208.171 2.0182 157.474 26.1838 159.089 81.9256C160.381 135.09 203.327 157 247.888 157C293.74 157 314.083 126.712 316.021 103.836C318.604 74.5149 301.813 55.8268 283.407 50.9937ZM229.159 3.95145C260.804 -2.1705 285.991 20.384 290.188 48.4161H187.182C192.994 26.506 207.202 8.14014 229.159 3.95145ZM313.115 104.48C309.886 129.612 285.668 148.623 257.898 149.911C224.962 151.2 200.744 136.379 188.796 102.547C183.307 87.081 182.338 68.0707 186.536 50.9937H270.168C294.709 50.9937 316.99 70.9706 313.115 104.48Z" fill="#85ABAE"/>
<path d="M418.258 0.084956C384.03 0.084956 374.989 47.4495 371.76 86.4366V0.084956H369.177L338.824 7.17352C338.824 7.17352 338.824 8.78456 338.824 9.42898C345.282 10.3956 346.25 13.6177 346.25 24.8949V133.801C346.25 145.078 343.99 149.911 338.824 152.811C338.824 153.456 338.824 155.067 338.824 155.067H378.864C378.864 155.067 378.864 153.456 378.864 152.811C374.02 149.911 371.76 145.078 371.76 133.801V121.235C371.76 93.8473 375.958 10.7178 407.602 5.88469C425.039 3.30703 434.081 27.1504 434.726 45.5162L436.987 46.805L456.684 19.0952C445.705 6.20691 435.695 0.084956 418.258 0.084956Z" fill="#85ABAE"/>
<path d="M591 152.811C586.156 149.911 583.896 145.078 583.896 133.801V53.8936C583.896 14.2621 555.48 0.084956 528.679 0.084956C485.41 0.084956 475.4 40.0387 483.795 58.7267C458.932 69.0374 439.235 88.3698 444.724 121.235C448.922 144.434 474.754 157 501.232 157C532.231 157 549.991 138.312 558.387 109.958V155.067H591C591 155.067 591 153.456 591 152.811ZM525.773 3.30703C548.699 3.30703 558.387 24.8949 558.387 49.3827V51.6382C552.897 50.0271 546.439 48.7383 539.012 48.7383C523.836 48.7383 504.461 50.9937 487.024 57.4379C477.337 31.3391 496.712 3.30703 525.773 3.30703ZM508.982 152.811C492.837 153.778 474.108 143.145 469.911 125.746C456.026 69.0374 503.816 51.6382 539.012 51.6382C549.022 51.6382 556.772 53.8936 558.387 54.538V104.158C551.928 127.357 537.075 151.2 508.982 152.811Z" fill="#85ABAE" style="mix-blend-mode: soft-light"/>
</svg>
